<svg id="svg" version="1.1" xmlns="http://www.w3.org/2000/svg" xmlns:xlink="http://www.w3.org/1999/xlink" width="400" height="300" viewBox="0, 0, 400,300"><g id="svgg"><path id="path0" d="M53.000 90.399 L 53.000 96.600 62.176 96.600 L 71.351 96.600 71.689 97.950 C 71.875 98.692,75.704 113.610,80.197 131.100 L 88.367 162.900 85.419 174.800 C 83.797 181.345,82.408 186.947,82.332 187.250 L 82.192 187.800 126.396 187.800 L 170.600 187.800 170.600 181.700 L 170.600 175.600 134.296 175.600 L 97.992 175.600 98.104 175.150 C 98.166 174.903,98.552 173.305,98.962 171.600 L 99.708 168.500 101.404 168.353 C 102.337 168.273,116.870 167.572,133.700 166.796 C 150.530 166.020,164.570 165.340,164.900 165.286 C 165.485 165.190,165.835 164.467,178.900 136.371 C 186.270 120.522,192.328 107.482,192.362 107.392 C 192.473 107.098,191.234 107.034,138.105 104.593 C 109.177 103.264,85.496 102.159,85.479 102.138 C 85.463 102.117,84.416 98.095,83.154 93.200 L 80.860 84.300 66.930 84.249 L 53.000 84.197 53.000 90.399 M132.750 116.637 C 155.218 117.658,173.600 118.558,173.600 118.639 C 173.600 118.719,169.960 126.551,165.512 136.042 L 157.423 153.300 128.562 154.621 C 112.688 155.348,99.667 155.915,99.627 155.882 C 99.558 155.824,89.200 114.872,89.200 114.654 C 89.200 114.596,89.808 114.601,90.550 114.665 C 91.293 114.729,110.282 115.617,132.750 116.637 M219.000 143.705 C 218.835 143.738,218.025 143.873,217.200 144.007 C 193.840 147.788,189.826 185.024,211.768 194.401 C 221.759 198.671,232.754 196.489,241.656 188.472 L 242.411 187.791 241.156 186.153 C 240.465 185.252,239.801 184.385,239.679 184.226 C 239.495 183.984,239.228 184.120,238.079 185.038 C 230.156 191.373,222.563 192.377,216.312 187.916 C 205.838 180.442,205.384 156.266,215.587 149.295 L 216.988 148.338 219.444 148.464 C 223.942 148.696,227.557 149.540,230.400 151.024 C 232.902 152.329,232.695 151.955,233.494 156.600 C 233.881 158.855,234.245 160.903,234.303 161.150 C 234.397 161.555,238.800 161.919,238.800 161.523 C 238.800 161.320,240.829 151.488,241.190 149.942 C 241.743 147.571,241.764 147.651,240.450 147.066 C 234.780 144.541,223.642 142.796,219.000 143.705 M328.746 155.950 C 327.573 157.683,326.138 159.728,325.557 160.496 L 324.500 161.893 322.200 162.425 C 320.935 162.717,319.563 163.016,319.150 163.087 L 318.400 163.218 318.400 165.209 C 318.400 167.138,318.414 167.200,318.850 167.207 C 320.129 167.229,324.447 167.580,324.537 167.670 C 324.594 167.728,324.532 172.798,324.398 178.937 C 324.128 191.361,324.163 191.872,325.403 193.805 C 328.379 198.442,335.910 197.806,343.243 192.300 C 346.587 189.789,346.423 190.074,345.543 188.294 L 344.812 186.818 343.150 187.702 C 340.278 189.230,337.360 189.630,336.047 188.677 C 334.506 187.557,334.267 185.990,334.089 175.850 L 333.955 168.200 335.031 168.200 C 336.097 168.200,341.250 168.490,343.850 168.696 L 345.200 168.803 345.200 166.001 L 345.200 163.200 339.669 163.200 L 334.138 163.200 334.255 158.000 L 334.371 152.800 332.625 152.800 L 330.878 152.800 328.746 155.950 M261.756 162.290 C 257.739 162.994,248.360 167.485,247.290 169.215 C 247.157 169.431,248.996 172.653,249.192 172.546 C 251.244 171.419,256.055 169.469,258.000 168.977 C 263.875 167.491,265.665 168.703,265.689 174.184 L 265.700 176.668 265.100 176.838 C 264.770 176.931,262.880 177.325,260.900 177.715 C 248.407 180.171,245.214 182.767,246.388 189.517 C 247.712 197.134,255.416 199.034,263.386 193.709 L 265.576 192.246 266.101 193.321 C 268.174 197.556,273.427 197.472,280.242 193.095 L 281.985 191.976 281.609 191.038 C 281.402 190.522,281.093 189.770,280.921 189.368 L 280.609 188.635 279.255 189.113 C 275.679 190.375,275.170 189.390,275.579 182.000 C 276.133 172.005,276.081 170.091,275.191 167.731 C 273.545 163.364,268.131 161.171,261.756 162.290 M307.595 162.443 C 304.991 163.356,302.848 165.431,300.480 169.332 C 300.308 169.614,300.230 169.167,300.125 167.297 C 300.050 165.979,299.934 164.282,299.867 163.527 L 299.744 162.153 298.822 162.282 C 295.189 162.791,287.940 163.396,285.400 163.402 C 283.284 163.408,283.250 163.448,283.841 165.227 L 284.330 166.700 286.988 167.139 C 288.449 167.381,289.675 167.608,289.711 167.644 C 289.924 167.857,290.216 178.944,290.163 184.782 L 290.100 191.665 287.100 192.433 C 285.450 192.855,284.043 193.223,283.974 193.250 C 283.905 193.278,284.077 193.888,284.356 194.607 L 284.864 195.914 296.312 195.922 L 307.761 195.930 308.277 194.628 C 308.899 193.060,309.401 193.411,304.900 192.266 L 301.100 191.300 300.941 187.600 C 300.505 177.442,301.689 172.653,305.409 169.523 C 306.974 168.206,309.227 170.906,310.398 175.500 L 310.755 176.900 312.910 176.900 L 315.065 176.900 315.926 173.937 C 317.513 168.473,318.104 165.447,317.677 164.974 C 315.476 162.543,310.716 161.348,307.595 162.443 M265.330 182.831 C 265.258 183.838,265.200 185.324,265.200 186.133 L 265.200 187.605 264.055 188.338 C 259.690 191.130,256.400 190.227,256.400 186.238 C 256.400 184.678,256.834 183.795,257.909 183.167 C 258.395 182.883,264.570 181.082,265.280 181.016 C 265.383 181.007,265.405 181.780,265.330 182.831 M91.055 191.508 C 82.321 193.860,79.595 204.860,86.206 211.073 C 92.604 217.086,103.021 214.020,105.205 205.481 C 107.361 197.052,99.455 189.245,91.055 191.508 M160.722 191.504 C 152.152 193.857,149.371 204.677,155.725 210.940 C 162.947 218.058,175.257 212.791,175.250 202.585 C 175.245 195.143,167.892 189.535,160.722 191.504 " stroke="none" fill="#05057c" fill-rule="evenodd"></path><path id="path1" d="M0.000 150.000 L 0.000 300.000 200.000 300.000 L 400.000 300.000 400.000 150.000 L 400.000 0.000 200.000 0.000 L 0.000 0.000 0.000 150.000 M80.949 84.350 C 81.024 84.543,82.087 88.570,83.311 93.300 L 85.536 101.900 86.418 102.046 C 86.903 102.126,110.964 103.275,139.887 104.599 C 168.809 105.923,192.505 107.038,192.544 107.077 C 192.602 107.135,165.676 165.171,165.505 165.358 C 165.475 165.389,150.732 166.109,132.742 166.958 C 114.752 167.806,99.979 168.554,99.914 168.619 C 99.821 168.713,98.930 172.196,98.296 174.950 L 98.192 175.400 134.496 175.400 L 170.800 175.400 170.800 181.700 L 170.800 188.000 126.379 188.000 C 90.925 188.000,81.976 187.950,82.051 187.750 C 82.103 187.613,83.515 181.954,85.188 175.175 L 88.231 162.850 79.810 130.075 C 75.178 112.049,71.340 97.142,71.281 96.950 C 71.180 96.623,70.566 96.600,62.087 96.600 L 53.000 96.600 53.000 90.300 L 53.000 84.000 66.906 84.000 C 79.965 84.000,80.821 84.021,80.949 84.350 M89.400 114.909 C 89.400 115.087,99.634 155.695,99.695 155.759 C 99.763 155.830,157.264 153.203,157.341 153.125 C 157.371 153.096,161.022 145.338,165.455 135.886 L 173.515 118.700 171.307 118.549 C 164.770 118.103,89.400 114.752,89.400 114.909 M230.100 143.976 C 234.565 144.736,241.800 147.031,241.800 147.688 C 241.800 147.732,241.445 149.373,241.012 151.334 C 240.578 153.295,239.933 156.408,239.577 158.250 L 238.931 161.600 236.591 161.600 L 234.251 161.600 233.933 159.850 C 233.758 158.888,233.414 156.887,233.168 155.404 C 232.665 152.365,232.622 152.294,230.642 151.239 C 227.963 149.811,224.197 148.912,219.602 148.603 L 217.100 148.435 215.842 149.246 C 206.320 155.387,205.741 178.003,214.887 186.558 C 217.906 189.382,220.342 190.301,224.800 190.297 C 229.958 190.292,232.398 189.271,238.608 184.519 L 239.516 183.824 240.958 185.700 C 242.715 187.985,242.723 187.712,240.850 189.313 C 234.693 194.577,229.694 196.498,222.200 196.482 C 206.710 196.448,196.591 185.152,197.255 168.636 C 197.970 150.871,211.394 140.792,230.100 143.976 M334.498 154.950 C 334.447 156.133,334.362 158.428,334.309 160.050 L 334.212 163.000 339.806 163.000 L 345.400 163.000 345.400 165.900 L 345.400 168.800 344.447 168.800 C 343.469 168.800,338.266 168.502,335.620 168.294 L 334.139 168.178 334.267 176.439 C 334.395 184.725,334.503 186.063,335.151 187.383 C 336.214 189.549,339.411 189.594,343.318 187.500 L 344.936 186.633 345.718 188.238 L 346.500 189.843 345.800 190.445 C 335.745 199.091,325.564 199.259,324.213 190.800 C 324.071 189.907,324.068 186.747,324.205 180.700 C 324.314 175.860,324.425 170.942,324.452 169.772 L 324.500 167.643 321.450 167.501 L 318.400 167.358 318.400 165.205 L 318.400 163.051 319.250 162.922 C 319.718 162.851,321.091 162.566,322.303 162.288 L 324.506 161.783 326.136 159.493 C 327.033 158.234,328.427 156.216,329.233 155.009 L 330.700 152.814 332.645 152.807 L 334.591 152.800 334.498 154.950 M268.100 162.101 C 274.467 163.438,276.161 166.530,275.880 176.300 C 275.511 189.151,275.540 189.404,277.355 189.395 C 277.885 189.393,278.813 189.180,279.468 188.910 L 280.635 188.430 281.090 189.465 C 281.727 190.917,282.092 191.976,281.988 192.072 C 281.940 192.117,281.127 192.655,280.182 193.268 C 273.400 197.670,268.182 197.683,265.951 193.303 L 265.500 192.418 263.900 193.525 C 255.341 199.450,247.267 197.313,246.192 188.838 C 245.371 182.359,248.509 180.020,261.423 177.487 C 266.054 176.579,265.661 176.861,265.652 174.449 C 265.641 171.301,264.916 169.484,263.346 168.672 C 261.764 167.854,255.700 169.436,250.614 171.993 L 249.041 172.784 248.019 171.075 C 246.812 169.055,246.700 169.346,249.362 167.579 C 256.099 163.108,263.119 161.055,268.100 162.101 M313.703 162.384 C 314.924 162.813,316.249 163.616,317.448 164.653 L 318.196 165.300 317.523 168.300 C 316.966 170.781,316.423 172.798,315.277 176.650 C 315.186 176.956,314.893 177.000,312.917 177.000 L 310.661 177.000 310.218 175.325 C 309.445 172.398,308.334 170.406,306.971 169.504 L 306.212 169.002 305.493 169.633 C 303.231 171.619,301.484 175.329,301.024 179.122 C 300.871 180.390,301.105 190.972,301.291 191.157 C 301.336 191.202,302.971 191.640,304.925 192.131 C 309.412 193.259,309.085 193.015,308.375 194.700 L 307.786 196.100 296.305 196.100 L 284.824 196.100 284.288 194.734 C 283.636 193.071,283.460 193.225,287.073 192.293 L 290.047 191.526 289.924 180.513 C 289.856 174.456,289.748 169.088,289.683 168.584 L 289.565 167.668 287.233 167.316 C 285.950 167.123,284.749 166.924,284.563 166.873 C 284.254 166.789,283.037 163.696,283.235 163.498 C 283.277 163.456,285.064 163.324,287.206 163.205 C 291.260 162.979,296.236 162.526,298.300 162.195 C 298.960 162.090,299.600 162.002,299.722 162.002 C 299.866 162.001,299.991 162.923,300.080 164.650 C 300.154 166.108,300.269 167.733,300.335 168.262 L 300.455 169.223 300.962 168.362 C 304.148 162.949,308.929 160.706,313.703 162.384 M262.900 181.731 C 257.365 183.212,256.756 183.585,256.498 185.650 C 256.039 189.323,258.672 190.821,262.466 189.045 C 265.052 187.835,264.927 188.039,265.086 184.755 C 265.162 183.185,265.270 181.743,265.326 181.550 C 265.456 181.100,265.183 181.120,262.900 181.731 M96.313 191.214 C 99.570 191.800,102.986 194.402,104.434 197.400 C 110.200 209.335,95.084 220.221,85.799 210.820 C 77.738 202.659,84.972 189.171,96.313 191.214 M167.414 191.576 C 175.596 194.180,178.069 204.792,171.922 210.918 C 164.573 218.241,152.133 213.016,152.120 202.600 C 152.111 194.761,159.864 189.172,167.414 191.576 " stroke="none" fill="#fbfbfb" fill-rule="evenodd"></path><path id="path2" d="M309.952 161.941 C 310.201 161.989,310.561 161.987,310.752 161.937 C 310.944 161.887,310.740 161.848,310.300 161.850 C 309.860 161.853,309.704 161.894,309.952 161.941 M324.450 170.500 C 324.453 170.940,324.494 171.096,324.541 170.848 C 324.589 170.599,324.587 170.239,324.537 170.048 C 324.487 169.856,324.448 170.060,324.450 170.500 M290.090 184.700 C 290.090 188.550,290.117 190.097,290.150 188.137 C 290.183 186.178,290.182 183.028,290.150 181.137 C 290.117 179.247,290.090 180.850,290.090 184.700 M324.246 179.600 C 324.246 179.985,324.288 180.143,324.338 179.950 C 324.388 179.758,324.388 179.442,324.338 179.250 C 324.288 179.058,324.246 179.215,324.246 179.600 M324.046 188.600 C 324.046 188.985,324.088 189.143,324.138 188.950 C 324.188 188.758,324.188 188.442,324.138 188.250 C 324.088 188.058,324.046 188.215,324.046 188.600 M204.000 189.063 C 204.000 189.097,204.293 189.390,204.650 189.713 L 205.300 190.300 204.713 189.650 C 204.165 189.044,204.000 188.908,204.000 189.063 M93.650 214.338 C 93.843 214.388,94.158 214.388,94.350 214.338 C 94.543 214.288,94.385 214.246,94.000 214.246 C 93.615 214.246,93.458 214.288,93.650 214.338 M163.450 214.338 C 163.643 214.388,163.958 214.388,164.150 214.338 C 164.343 214.288,164.185 214.246,163.800 214.246 C 163.415 214.246,163.258 214.288,163.450 214.338 " stroke="none" fill="#9c9ecb" fill-rule="evenodd"></path><path id="path3" d="" stroke="none" fill="#bdbfdc" fill-rule="evenodd"></path><path id="path4" d="M221.850 143.547 C 222.373 143.588,223.228 143.588,223.750 143.547 C 224.273 143.506,223.845 143.472,222.800 143.472 C 221.755 143.472,221.328 143.506,221.850 143.547 M156.900 153.200 L 156.300 153.353 156.838 153.376 C 157.134 153.389,157.432 153.310,157.500 153.200 C 157.568 153.090,157.596 153.011,157.562 153.024 C 157.528 153.037,157.230 153.116,156.900 153.200 M334.254 156.400 C 334.254 156.895,334.293 157.097,334.341 156.850 C 334.389 156.603,334.389 156.197,334.341 155.950 C 334.293 155.703,334.254 155.905,334.254 156.400 M342.345 163.147 L 345.189 163.211 345.253 165.955 L 345.316 168.700 345.308 165.900 L 345.300 163.100 342.400 163.091 L 339.500 163.082 342.345 163.147 M208.271 168.100 C 208.270 169.090,208.304 169.520,208.346 169.056 C 208.388 168.592,208.389 167.782,208.347 167.256 C 208.306 166.730,208.272 167.110,208.271 168.100 M197.272 170.000 C 197.272 171.045,197.306 171.472,197.347 170.950 C 197.388 170.428,197.388 169.572,197.347 169.050 C 197.306 168.528,197.272 168.955,197.272 170.000 M334.083 171.900 C 334.084 173.990,334.113 174.818,334.149 173.740 C 334.185 172.661,334.185 170.951,334.149 169.940 C 334.113 168.928,334.083 169.810,334.083 171.900 M324.462 172.900 C 324.463 173.560,324.500 173.806,324.545 173.446 C 324.589 173.087,324.589 172.547,324.543 172.246 C 324.497 171.946,324.461 172.240,324.462 172.900 M290.057 175.700 C 290.059 176.250,290.098 176.451,290.144 176.147 C 290.189 175.843,290.188 175.393,290.141 175.147 C 290.093 174.901,290.056 175.150,290.057 175.700 M170.647 181.650 L 170.600 187.799 126.350 187.850 L 82.100 187.901 126.356 187.950 C 161.818 187.990,170.632 187.950,170.709 187.748 C 170.763 187.609,170.781 184.797,170.750 181.498 L 170.694 175.500 170.647 181.650 M275.850 176.300 C 275.853 176.740,275.894 176.896,275.941 176.648 C 275.989 176.399,275.987 176.039,275.937 175.848 C 275.887 175.656,275.848 175.860,275.850 176.300 M324.262 181.900 C 324.263 182.560,324.300 182.806,324.345 182.446 C 324.389 182.087,324.389 181.547,324.343 181.246 C 324.297 180.946,324.261 181.240,324.262 181.900 M275.470 185.200 C 275.470 186.135,275.504 186.518,275.546 186.050 C 275.589 185.583,275.589 184.817,275.546 184.350 C 275.504 183.883,275.470 184.265,275.470 185.200 M300.854 185.200 C 300.854 185.695,300.893 185.898,300.941 185.650 C 300.989 185.403,300.989 184.998,300.941 184.750 C 300.893 184.503,300.854 184.705,300.854 185.200 M93.450 191.143 C 93.752 191.189,94.248 191.189,94.550 191.143 C 94.853 191.097,94.605 191.060,94.000 191.060 C 93.395 191.060,93.148 191.097,93.450 191.143 M163.250 191.143 C 163.553 191.189,164.048 191.189,164.350 191.143 C 164.653 191.097,164.405 191.060,163.800 191.060 C 163.195 191.060,162.947 191.097,163.250 191.143 M293.661 195.949 C 294.960 195.984,297.030 195.984,298.261 195.949 C 299.493 195.914,298.430 195.886,295.900 195.886 C 293.370 195.886,292.363 195.915,293.661 195.949 M285.250 196.138 C 285.443 196.188,285.757 196.188,285.950 196.138 C 286.143 196.088,285.985 196.046,285.600 196.046 C 285.215 196.046,285.058 196.088,285.250 196.138 M221.850 196.543 C 222.153 196.589,222.648 196.589,222.950 196.543 C 223.253 196.497,223.005 196.460,222.400 196.460 C 221.795 196.460,221.548 196.497,221.850 196.543 M270.850 196.538 C 271.043 196.588,271.358 196.588,271.550 196.538 C 271.743 196.488,271.585 196.446,271.200 196.446 C 270.815 196.446,270.657 196.488,270.850 196.538 M331.450 196.938 C 331.643 196.988,331.957 196.988,332.150 196.938 C 332.343 196.888,332.185 196.846,331.800 196.846 C 331.415 196.846,331.257 196.888,331.450 196.938 " stroke="none" fill="#747cba" fill-rule="evenodd"></path><path id="path5" d="M336.250 163.148 C 336.882 163.187,337.918 163.187,338.550 163.148 C 339.183 163.108,338.665 163.076,337.400 163.076 C 336.135 163.076,335.618 163.108,336.250 163.148 M290.046 177.200 C 290.046 177.585,290.088 177.743,290.138 177.550 C 290.188 177.358,290.188 177.043,290.138 176.850 C 290.088 176.658,290.046 176.815,290.046 177.200 " stroke="none" fill="#7c7cbc" fill-rule="evenodd"></path><path id="path6" d="M59.965 84.150 C 63.850 84.180,70.150 84.180,73.965 84.150 C 77.779 84.120,74.600 84.095,66.900 84.095 C 59.200 84.095,56.079 84.120,59.965 84.150 M334.250 160.500 C 334.253 160.940,334.294 161.096,334.341 160.848 C 334.389 160.599,334.387 160.239,334.337 160.048 C 334.287 159.856,334.248 160.060,334.250 160.500 M116.366 175.550 C 126.412 175.579,142.792 175.579,152.766 175.550 C 162.740 175.521,154.520 175.498,134.500 175.498 C 114.480 175.498,106.320 175.521,116.366 175.550 M246.046 187.400 C 246.046 187.785,246.088 187.942,246.138 187.750 C 246.188 187.558,246.188 187.243,246.138 187.050 C 246.088 186.858,246.046 187.015,246.046 187.400 M254.050 196.938 C 254.243 196.988,254.558 196.988,254.750 196.938 C 254.943 196.888,254.785 196.846,254.400 196.846 C 254.015 196.846,253.857 196.888,254.050 196.938 " stroke="none" fill="#cdcee5" fill-rule="evenodd"></path><path id="path7" d="" stroke="none" fill="#c4c4e4" fill-rule="evenodd"></path></g></svg>