<svg id="svg" version="1.1" xmlns="http://www.w3.org/2000/svg" xmlns:xlink="http://www.w3.org/1999/xlink" width="400" height="300" viewBox="0, 0, 400,300"><g id="svgg"><path id="path0" d="M273.000 87.318 C 268.509 88.510,267.859 89.358,262.200 101.400 C 258.053 110.224,222.594 184.254,222.426 184.438 C 222.357 184.515,221.040 184.316,219.500 183.998 C 217.960 183.679,210.760 182.195,203.500 180.698 C 196.240 179.202,185.755 177.040,180.200 175.893 C 174.645 174.747,162.460 172.234,153.123 170.310 C 143.785 168.386,136.126 166.787,136.102 166.756 C 136.079 166.725,134.300 153.425,132.150 137.200 C 127.835 104.643,128.016 105.688,126.191 102.920 C 120.289 93.972,106.749 99.103,108.036 109.800 C 109.194 119.436,117.092 178.153,117.330 178.900 C 118.154 181.488,120.077 183.730,122.472 184.894 C 124.782 186.018,226.334 207.284,228.700 207.139 C 231.501 206.969,234.287 205.524,235.939 203.386 C 236.537 202.612,243.201 188.728,259.114 155.100 C 271.398 129.140,281.461 107.886,281.475 107.870 C 281.489 107.853,283.231 107.984,285.347 108.161 C 291.054 108.638,293.396 108.037,296.002 105.429 C 301.577 99.849,298.635 89.938,290.953 88.422 C 287.149 87.671,274.582 86.898,273.000 87.318 " stroke="none" fill="#0f51bf" fill-rule="evenodd"></path><path id="path1" d="M0.000 150.000 L 0.000 300.000 200.000 300.000 L 400.000 300.000 400.000 150.000 L 400.000 0.000 200.000 0.000 L 0.000 0.000 0.000 150.000 M246.493 55.197 C 247.921 55.740,261.501 67.369,261.781 68.289 C 262.636 71.103,264.020 67.534,239.366 126.094 C 216.127 181.293,216.230 181.059,214.709 181.796 C 213.353 182.452,213.387 182.473,206.254 176.573 C 197.130 169.025,197.489 169.451,197.512 166.200 L 197.524 164.500 219.887 111.400 C 232.186 82.195,242.455 57.895,242.705 57.400 C 243.630 55.573,245.152 54.687,246.493 55.197 M205.974 65.475 C 207.033 66.396,210.510 69.419,213.700 72.192 C 216.890 74.965,219.665 77.494,219.867 77.813 C 220.701 79.129,221.032 81.853,220.589 83.771 C 220.299 85.028,185.663 170.555,185.081 171.452 C 184.059 173.023,182.155 173.906,181.013 173.337 C 179.724 172.693,165.161 159.757,164.779 158.915 C 164.358 157.988,164.273 155.492,164.613 154.017 C 164.819 153.125,199.261 67.849,200.003 66.395 C 201.641 63.183,203.083 62.961,205.974 65.475 M157.985 69.932 C 158.715 70.443,171.729 85.746,172.102 86.532 C 173.536 89.555,173.904 87.019,166.015 128.500 C 159.326 163.667,159.152 164.530,158.437 165.924 C 157.047 168.635,157.138 168.699,149.541 159.800 C 141.445 150.318,141.544 150.500,141.552 145.200 C 141.556 142.837,153.820 76.701,155.137 71.940 C 155.686 69.959,156.850 69.137,157.985 69.932 M283.787 87.596 C 292.515 88.356,293.389 88.604,295.920 91.035 C 301.967 96.841,298.701 107.032,290.356 108.394 C 289.409 108.549,288.177 108.519,285.345 108.272 C 283.279 108.091,281.559 107.979,281.522 108.022 C 281.485 108.065,279.606 112.015,277.347 116.800 C 238.130 199.855,236.640 202.936,234.927 204.557 C 231.646 207.660,229.538 207.840,220.000 205.836 C 216.315 205.061,199.305 201.490,182.200 197.900 C 114.113 183.611,122.339 185.573,119.786 183.016 C 116.998 180.224,117.737 184.169,112.301 143.041 C 107.572 107.257,107.628 107.746,108.098 105.941 C 110.354 97.278,121.497 95.453,126.338 102.955 C 128.131 105.734,127.920 104.513,132.287 137.412 C 134.420 153.483,136.196 166.660,136.233 166.694 C 136.473 166.915,222.253 184.424,222.386 184.279 C 222.575 184.071,257.190 111.833,262.003 101.600 C 267.204 90.543,267.338 90.318,269.648 88.727 C 272.429 86.812,273.658 86.714,283.787 87.596 M128.300 200.972 C 145.525 205.936,146.045 229.917,129.043 235.276 C 115.756 239.463,103.020 227.482,106.363 213.940 C 108.752 204.259,118.896 198.263,128.300 200.972 M219.200 213.291 C 238.726 219.542,234.438 248.367,214.000 248.251 C 201.047 248.178,192.643 235.421,197.611 223.374 C 200.970 215.227,210.844 210.616,219.200 213.291 " stroke="none" fill="#fbfbfb" fill-rule="evenodd"></path><path id="path2" d="M201.860 64.217 C 201.052 64.734,200.191 66.028,199.431 67.866 C 197.589 72.320,165.190 152.468,164.895 153.300 C 164.660 153.965,164.534 154.937,164.520 156.204 C 164.487 159.343,163.346 158.121,178.749 171.453 C 181.189 173.565,181.619 173.732,183.065 173.127 C 184.840 172.386,183.908 174.524,202.874 127.667 C 221.674 81.219,220.905 83.267,220.571 80.495 C 220.268 77.972,220.408 78.129,211.794 70.638 C 203.142 63.113,203.361 63.255,201.860 64.217 " stroke="none" fill="#fc4c04" fill-rule="evenodd"></path><path id="path3" d="M244.697 55.389 C 244.132 55.618,243.074 56.739,242.725 57.478 C 242.080 58.844,198.035 163.553,197.803 164.274 C 197.452 165.363,197.631 168.285,198.108 169.256 C 198.432 169.914,210.453 180.205,212.585 181.649 C 213.693 182.399,215.161 181.855,216.234 180.297 C 216.798 179.479,260.951 74.861,261.644 72.700 C 262.111 71.247,262.060 69.062,261.533 67.981 C 261.239 67.375,250.284 57.998,247.127 55.650 C 246.506 55.188,245.468 55.076,244.697 55.389 " stroke="none" fill="#07b5fe" fill-rule="evenodd"></path><path id="path4" d="M156.229 70.106 C 155.311 70.879,155.446 70.239,148.359 107.400 L 141.702 142.300 141.701 145.200 C 141.700 148.460,141.974 150.069,142.771 151.465 C 143.483 152.716,155.774 167.101,156.375 167.387 C 157.308 167.833,158.353 166.519,159.078 163.991 C 159.856 161.276,172.647 93.250,172.747 91.299 C 172.955 87.195,173.248 87.694,164.855 77.857 C 157.483 69.217,157.388 69.131,156.229 70.106 " stroke="none" fill="#13da20" fill-rule="evenodd"></path><path id="path5" d="M121.362 200.598 C 107.187 202.366,100.916 219.828,110.681 230.338 C 121.628 242.119,141.437 234.359,141.434 218.290 C 141.433 207.622,131.963 199.275,121.362 200.598 M211.612 212.817 C 199.735 214.354,192.809 227.387,198.070 238.300 C 203.856 250.305,221.023 251.642,228.602 240.678 C 237.411 227.936,226.979 210.829,211.612 212.817 " stroke="none" fill="#313031" fill-rule="evenodd"></path><path id="path6" d="M220.650 80.900 C 220.653 81.340,220.694 81.496,220.741 81.248 C 220.789 80.999,220.787 80.639,220.737 80.448 C 220.687 80.256,220.648 80.460,220.650 80.900 M220.646 82.600 C 220.646 82.985,220.688 83.142,220.738 82.950 C 220.788 82.758,220.788 82.442,220.738 82.250 C 220.688 82.058,220.646 82.215,220.646 82.600 M184.287 172.250 L 183.700 172.900 184.350 172.313 C 184.708 171.990,185.000 171.697,185.000 171.663 C 185.000 171.508,184.835 171.644,184.287 172.250 " stroke="none" fill="#fcb798" fill-rule="evenodd"></path><path id="path7" d="M262.046 70.400 C 262.046 70.785,262.088 70.942,262.138 70.750 C 262.188 70.558,262.188 70.242,262.138 70.050 C 262.088 69.858,262.046 70.015,262.046 70.400 M172.860 90.600 C 172.860 91.205,172.897 91.453,172.943 91.150 C 172.989 90.848,172.989 90.353,172.943 90.050 C 172.897 89.748,172.860 89.995,172.860 90.600 M141.460 145.200 C 141.460 145.805,141.497 146.053,141.543 145.750 C 141.589 145.447,141.589 144.953,141.543 144.650 C 141.497 144.347,141.460 144.595,141.460 145.200 M197.460 166.400 C 197.460 167.005,197.497 167.253,197.543 166.950 C 197.589 166.648,197.589 166.153,197.543 165.850 C 197.497 165.548,197.460 165.795,197.460 166.400 M110.989 205.550 L 110.300 206.300 111.050 205.611 C 111.748 204.969,111.892 204.800,111.739 204.800 C 111.706 204.800,111.368 205.138,110.989 205.550 " stroke="none" fill="#c9dee5" fill-rule="evenodd"></path><path id="path8" d="M268.087 90.050 L 267.500 90.700 268.150 90.113 C 268.756 89.565,268.892 89.400,268.737 89.400 C 268.703 89.400,268.410 89.692,268.087 90.050 M117.354 98.345 C 117.713 98.389,118.253 98.389,118.554 98.343 C 118.854 98.297,118.560 98.261,117.900 98.262 C 117.240 98.263,116.994 98.300,117.354 98.345 M110.687 101.250 L 110.100 101.900 110.750 101.313 C 111.108 100.990,111.400 100.697,111.400 100.663 C 111.400 100.508,111.235 100.644,110.687 101.250 M136.100 205.600 C 136.530 206.040,136.926 206.400,136.981 206.400 C 137.036 206.400,136.730 206.040,136.300 205.600 C 135.870 205.160,135.474 204.800,135.419 204.800 C 135.364 204.800,135.670 205.160,136.100 205.600 M141.450 217.300 C 141.453 217.740,141.494 217.896,141.541 217.648 C 141.589 217.399,141.587 217.039,141.537 216.848 C 141.487 216.656,141.448 216.860,141.450 217.300 M226.392 217.650 C 227.220 218.533,227.400 218.692,227.400 218.542 C 227.400 218.510,226.972 218.082,226.450 217.592 L 225.500 216.700 226.392 217.650 M105.866 218.300 C 105.867 219.070,105.903 219.360,105.946 218.946 C 105.989 218.531,105.989 217.901,105.944 217.546 C 105.900 217.190,105.865 217.530,105.866 218.300 M201.287 217.850 L 200.700 218.500 201.350 217.913 C 201.956 217.365,202.092 217.200,201.937 217.200 C 201.903 217.200,201.610 217.493,201.287 217.850 M141.450 219.500 C 141.453 219.940,141.494 220.096,141.541 219.848 C 141.589 219.599,141.587 219.239,141.537 219.048 C 141.487 218.856,141.448 219.060,141.450 219.500 M231.846 230.600 C 231.846 230.985,231.888 231.143,231.938 230.950 C 231.988 230.757,231.988 230.443,231.938 230.250 C 231.888 230.058,231.846 230.215,231.846 230.600 M111.000 230.900 C 111.373 231.285,111.723 231.600,111.778 231.600 C 111.833 231.600,111.573 231.285,111.200 230.900 C 110.827 230.515,110.477 230.200,110.422 230.200 C 110.367 230.200,110.627 230.515,111.000 230.900 M136.287 230.850 L 135.700 231.500 136.350 230.913 C 136.708 230.590,137.000 230.297,137.000 230.263 C 137.000 230.108,136.835 230.244,136.287 230.850 M123.050 236.143 C 123.353 236.189,123.847 236.189,124.150 236.143 C 124.453 236.097,124.205 236.060,123.600 236.060 C 122.995 236.060,122.748 236.097,123.050 236.143 " stroke="none" fill="#bcbcd6" fill-rule="evenodd"></path></g></svg>